<svg width="1600" height="319" viewBox="0 0 1600 319" fill="none" xmlns="http://www.w3.org/2000/svg">
<g clip-path="url(#clip0_75_115)">
<path fill-rule="evenodd" clip-rule="evenodd" d="M442.372 140.555H404.442V178.593H442.372V140.555ZM425.877 38.0374V3.05176e-05H313.467V38.0374H350.46V319.247H388.539V38.0374H425.877ZM1489.42 281.111V319H1351.72V3.05176e-05H1389.8V281.209H1425.9V3.05176e-05H1463.88V281.209L1489.42 281.111ZM-165.901 319H153.398V281.111H-166L-165.901 319ZM112.801 245.836H115.319V262.067H153.398V55.4033C153.359 40.73 147.51 26.668 137.128 16.2877C126.745 5.90749 112.673 0.0521043 97.9839 3.05176e-05H-110.783C-125.472 0.0521043 -139.544 5.90749 -149.927 16.2877C-160.309 26.668 -166.158 40.73 -166.197 55.4033V76.7652H-128.118V55.4033C-128.105 50.8101 -126.276 46.4079 -123.03 43.1553C-119.783 39.9028 -115.381 38.0634 -110.783 38.0374H97.6875C102.286 38.0634 106.687 39.9028 109.934 43.1553C113.181 46.4079 115.01 50.8101 115.023 55.4033V112.04H-110.783C-125.472 112.066 -139.551 117.906 -149.938 128.281C-160.324 138.657 -166.171 152.721 -166.197 167.394V206.862C-166.106 221.501 -160.234 235.512 -149.857 245.85C-139.481 256.188 -125.438 262.016 -110.783 262.067H73.4376C88.0975 262.037 102.147 256.2 112.504 245.836H112.801ZM-127.822 167.394V206.862C-127.796 211.446 -125.961 215.836 -122.716 219.078C-119.471 222.32 -115.076 224.152 -110.487 224.178H97.9839C102.574 224.152 106.968 222.32 110.213 219.078C113.459 215.836 115.293 211.446 115.319 206.862V150.077H-110.783C-115.377 150.09 -119.778 151.919 -123.027 155.163C-126.275 158.408 -128.105 162.805 -128.118 167.394H-127.822ZM1127.4 224.03C1131.99 224.004 1136.39 222.173 1139.64 218.933C1142.9 215.692 1144.74 211.303 1144.78 206.714V185.302H1182.86V206.714C1182.79 221.383 1176.93 235.432 1166.54 245.8C1156.15 256.168 1142.08 262.016 1127.4 262.067H918.827C904.146 262.015 890.082 256.167 879.701 245.797C869.32 235.428 863.465 221.378 863.413 206.714V55.4033C863.478 40.7379 869.335 26.691 879.712 16.3163C890.089 5.94166 904.146 0.0778953 918.827 3.05176e-05H1127.3C1141.99 0.052034 1156.07 5.90587 1166.46 16.2847C1176.85 26.6636 1182.71 40.7254 1182.76 55.4033V150.077H901.689V206.714C901.715 211.298 903.55 215.688 906.795 218.93C910.041 222.172 914.435 224.004 919.025 224.03H1127.4ZM1144.78 112.04H901.689V55.4033C901.702 50.8101 903.531 46.4079 906.778 43.1553C910.025 39.9028 914.426 38.0634 919.025 38.0374H1127.49C1132.1 38.0633 1136.5 39.9012 1139.76 43.1523C1143.01 46.4035 1144.85 50.8055 1144.88 55.4033L1144.78 112.04ZM863.511 319.247H1182.86V281.358H863.413L863.511 319.247ZM498.923 131.28H495.861V3.05176e-05H457.93V319H495.861V169.071H498.775L553.102 319H592.317L530.779 150.077L589.551 3.05176e-05H550.336L498.923 131.28ZM1242.92 131.28H1239.95V3.05176e-05H1201.87V319H1239.95V169.071H1242.47L1296.8 319H1335.82L1274.53 150.077L1333.3 3.05176e-05H1294.33L1242.92 131.28ZM1574.86 319.247H1508.38L1507.54 0.246796H1545.47V281.209H1548.44L1596.59 3.05176e-05H1663.91V319H1625.83V37.7906H1622.77L1574.86 319.247ZM763.4 3.05176e-05H821.482L844.299 150.077H806.22L793.922 31.6732H790.959L778.661 150.077H740.583L763.4 3.05176e-05ZM763.4 169.071H821.482L844.299 319H806.22L793.922 200.596H790.959L778.661 319H740.583L763.4 169.071ZM211.43 262.067H248.916C263.61 262.041 277.694 256.203 288.089 245.829C298.483 235.455 304.341 221.391 304.38 206.714V55.4033C304.328 40.7254 298.468 26.6636 288.078 16.2847C277.687 5.90587 263.61 0.052034 248.916 3.05176e-05H173.351V319H211.43V262.067ZM211.43 38.0374H248.916C253.519 38.0633 257.926 39.9012 261.181 43.1523C264.435 46.4035 266.275 50.8055 266.301 55.4033V206.714C266.262 211.303 264.417 215.692 261.163 218.933C257.91 222.173 253.511 224.004 248.916 224.03H211.43V38.0374ZM1775.87 262.067H1738.83L1721.05 319H1682.97L1700.75 262.067H1720.51V259.009C1709.58 255.284 1700.09 248.241 1693.37 238.864C1686.65 229.488 1683.03 218.246 1683.02 206.714V55.4033C1683.05 40.726 1688.89 26.6565 1699.28 16.2734C1709.66 5.89038 1723.74 0.0391469 1738.44 3.05176e-05H1814.05V319H1775.87V262.067ZM1775.87 38.0374H1738.34C1733.74 38.0762 1729.35 39.9197 1726.1 43.1695C1722.86 46.4193 1721.03 50.814 1721 55.4033V206.714C1721.03 211.298 1722.86 215.688 1726.11 218.93C1729.35 222.172 1733.75 224.004 1738.34 224.03H1775.87V38.0374ZM721.568 263.597C721.542 278.274 715.697 292.344 705.312 302.727C694.926 313.11 680.847 318.961 666.153 319H646.003C631.305 318.961 617.22 313.111 606.827 302.73C596.434 292.348 590.578 278.279 590.539 263.597V55.4033C590.591 40.7254 596.451 26.6636 606.842 16.2847C617.232 5.90587 631.309 0.052034 646.003 3.05176e-05H666.153C680.843 0.0521043 694.915 5.90749 705.297 16.2877C715.679 26.668 721.529 40.73 721.568 55.4033V263.597ZM666.153 281.111C670.773 281.072 675.19 279.208 678.438 275.926C681.686 272.644 683.502 268.212 683.489 263.597V55.4033C683.463 50.814 681.63 46.4193 678.386 43.1695C675.142 39.9197 670.748 38.0762 666.153 38.0374H646.003C641.4 38.0633 636.993 39.9012 633.739 43.1523C630.484 46.4035 628.644 50.8055 628.618 55.4033V263.597C628.605 268.22 630.427 272.66 633.686 275.943C636.945 279.226 641.374 281.085 646.003 281.111H666.153Z" fill="url(#paint0_linear_75_115)"/>
</g>
<defs>
<linearGradient id="paint0_linear_75_115" x1="-166.197" y1="159.623" x2="1814.05" y2="159.623" gradientUnits="userSpaceOnUse">
<stop stop-color="#3F2E9A"/>
<stop offset="1" stop-color="#4736A5"/>
</linearGradient>
<clipPath id="clip0_75_115">
<rect width="1980" height="319" fill="white" transform="translate(-166)"/>
</clipPath>
</defs>
</svg>
